<svg xmlns="http://www.w3.org/2000/svg" viewBox="0 0 64 64">
  <defs>
    <linearGradient id="g" x1="0" x2="1" y1="0" y2="1">
      <stop offset="0" stop-color="#2ecc71"/>
      <stop offset="1" stop-color="#27ae60"/>
    </linearGradient>
  </defs>
  <rect x="4" y="4" width="56" height="56" rx="16" fill="url(#g)"/>
  <path d="M34 18c6 0 10 4 10 10 0 11-9 18-20 18-4 0-7-1-9-3 4 1 9-1 12-4-4 0-7-3-7-7 0-6 6-14 14-14z" fill="#0b3d1d" opacity=".9"/>
  <path d="M38 14c-3 1-5 3-6 6 3-1 6-1 9 0 0-3-1-5-3-6z" fill="#083016"/>
</svg>
