<svg xmlns="http://www.w3.org/2000/svg" width="1400" height="900" viewBox="0 0 1400 900">
  <defs>
    <linearGradient id="g" x1="0" y1="0" x2="1" y2="1">
      <stop offset="0" stop-color="#2ecc71" stop-opacity="0.25"/>
      <stop offset="1" stop-color="#27ae60" stop-opacity="0.10"/>
    </linearGradient>
    <filter id="blur" x="-20%" y="-20%" width="140%" height="140%">
      <feGaussianBlur stdDeviation="18"/>
    </filter>
  </defs>
  <rect width="1400" height="900" fill="#f7faf8"/>
  <rect width="1400" height="900" fill="url(#g)"/>
  <g filter="url(#blur)" opacity="0.55">
    <circle cx="320" cy="220" r="170" fill="#2ecc71"/>
    <circle cx="1040" cy="260" r="220" fill="#27ae60"/>
    <circle cx="860" cy="680" r="300" fill="#2ecc71"/>
  </g>
  <g font-family="system-ui, -apple-system, Segoe UI, Roboto, Arial" fill="#0f172a" opacity="0.92">
    <text x="92" y="135" font-size="44" font-weight="850">Verdulería Natural</text>
    <text x="92" y="175" font-size="24" font-weight="650" opacity="0.7">Reemplazá este SVG por una foto real</text>
  </g>
  <g transform="translate(180,260)">
    <ellipse cx="140" cy="260" rx="120" ry="150" fill="#2ecc71" opacity="0.92"/>
    <ellipse cx="140" cy="260" rx="80" ry="105" fill="#27ae60" opacity="0.55"/>
    <path d="M140 100 C120 80 95 65 75 58 C100 105 120 128 140 150 C160 128 180 105 205 58 C185 65 160 80 140 100 Z" fill="#14532d" opacity="0.95"/>
  </g>
  <g transform="translate(760,330)">
    <circle cx="180" cy="210" r="140" fill="#ef4444" opacity="0.9"/>
    <circle cx="135" cy="165" r="40" fill="#ffffff" opacity="0.20"/>
    <path d="M180 60 C165 45 145 35 120 28 C142 72 160 92 180 108 C200 92 218 72 240 28 C215 35 195 45 180 60 Z" fill="#14532d" opacity="0.95"/>
  </g>
</svg>
